<svg version="1.1" id="Layer_1" xmlns="http://www.w3.org/2000/svg" xmlns:xlink="http://www.w3.org/1999/xlink" x="0px" y="0px"
	 width="100%" viewBox="0 0 896 896" enable-background="new 0 0 896 896" xml:space="preserve">
<path fill="#000000" opacity="1.000000" stroke="none" 
	d="
M670.767578,381.749420 
	C680.995117,373.462097 691.616699,366.194794 700.548706,356.925018 
	C702.422485,354.980408 705.711426,353.000763 704.261414,349.927765 
	C702.798157,346.826874 699.263428,345.645325 695.807861,345.458832 
	C687.374023,345.003662 679.198486,346.331085 671.618103,350.115845 
	C659.470093,356.181183 648.889404,364.570618 638.427124,373.103180 
	C617.865662,389.872162 596.448730,405.392334 572.910278,417.790955 
	C568.050598,420.350769 563.098267,422.736725 558.160156,425.144470 
	C555.607483,426.389099 553.860168,428.122803 553.433228,431.094971 
	C550.697327,450.137878 539.423645,453.885437 526.499512,454.124176 
	C507.734131,454.470795 488.901093,453.902100 470.171600,452.626526 
	C453.449707,451.487671 437.114685,447.390900 420.809204,443.478180 
	C396.009857,437.527283 370.966431,433.542725 345.318848,434.989014 
	C341.647461,435.196045 337.907104,435.209961 334.599396,433.296509 
	C330.851013,431.128174 328.604340,428.050476 329.610291,423.404053 
	C330.564850,418.995178 333.893799,418.586121 337.600433,418.375671 
	C365.514221,416.790833 392.998993,419.602936 420.091797,426.359131 
	C445.786285,432.766632 471.671936,437.196808 498.334808,436.796753 
	C507.413147,436.660553 516.562866,437.445404 525.704285,437.490753 
	C535.747192,437.540588 540.412048,430.860901 536.236938,421.661255 
	C534.090210,416.931183 530.510254,413.520844 526.210266,410.806152 
	C511.305115,401.396118 494.566132,396.987122 477.595551,393.445496 
	C458.445740,389.449127 438.802002,388.005920 419.995850,382.161774 
	C400.746674,376.179962 384.008118,365.844818 368.554504,353.164246 
	C348.143280,336.415497 326.986847,320.807861 302.076721,311.215363 
	C288.654388,306.046661 274.899139,302.331085 260.298431,302.948700 
	C247.824509,303.476410 236.129150,307.388641 224.649963,311.696747 
	C198.591904,321.476257 173.521423,333.551941 148.384888,345.450989 
	C145.678223,346.732208 142.993820,348.224792 140.130157,348.970581 
	C136.060837,350.030365 132.372299,348.810242 130.373352,344.894043 
	C128.369904,340.968994 129.784683,337.352722 132.834030,334.614441 
	C136.348114,331.458832 140.898315,329.966064 145.116165,328.013855 
	C168.389435,317.242004 191.806091,306.795868 215.594360,297.195801 
	C233.679871,289.897217 252.303223,284.684601 271.920471,286.766449 
	C290.725311,288.762115 308.519104,294.753937 325.614960,303.041138 
	C346.832672,313.326508 364.995300,327.870972 383.057373,342.644867 
	C401.244263,357.520935 421.954742,366.753632 445.133392,370.629974 
	C461.800842,373.417419 478.407532,376.574097 494.811035,380.663330 
	C497.476746,381.327881 499.565155,380.942230 501.913116,379.823334 
	C519.179871,371.595032 534.174866,359.870026 549.667358,348.915894 
	C563.401978,339.204620 576.857910,329.058014 592.500305,322.436859 
	C601.610657,318.580566 610.714844,315.804108 620.092163,321.770386 
	C622.218689,323.123352 623.939697,321.368073 625.553467,320.365448 
	C632.645630,315.958862 639.956543,312.002686 647.795837,309.087280 
	C659.817444,304.616547 672.127014,307.475861 680.053467,316.676483 
	C681.445312,318.292114 682.680603,320.156708 683.529236,322.106110 
	C686.787354,329.589783 686.720032,329.747894 695.167114,329.588684 
	C703.447693,329.432587 710.833496,331.839630 716.255737,338.030548 
	C723.584106,346.397766 722.508972,358.617737 714.123779,367.362701 
	C704.871399,377.012024 693.944519,384.703308 683.599426,393.077942 
	C661.731750,410.780182 640.020813,428.676392 618.118042,446.334778 
	C601.893677,459.415100 585.408936,472.168213 565.772583,479.947113 
	C552.441711,485.228119 538.387573,488.112305 524.682190,492.153809 
	C502.183044,498.788483 480.147736,506.857452 457.784302,513.889648 
	C443.451080,518.396729 428.801025,519.563232 413.520538,517.767334 
	C379.828156,513.807434 349.506805,500.560303 319.358673,486.370972 
	C297.492615,476.079651 276.347687,464.409637 255.002625,453.118622 
	C241.473053,445.961884 227.183655,440.812836 211.880112,439.890594 
	C200.627060,439.212402 189.881348,442.601898 179.631714,447.294922 
	C172.214050,450.691284 164.719055,453.921814 157.345810,457.410736 
	C154.132797,458.931091 151.255875,458.526367 148.309937,456.951996 
	C143.403992,454.330170 142.729324,446.341003 147.584305,443.711914 
	C163.288574,435.207642 179.548309,427.775330 197.252411,424.696838 
	C217.568176,421.164185 237.091614,425.049438 255.382751,434.100891 
	C277.021027,444.808685 298.185608,456.471710 319.791351,467.247803 
	C340.814117,477.733093 362.171021,487.585663 384.798553,494.194336 
	C398.660889,498.243073 412.642670,501.560730 427.317322,501.788208 
	C440.460449,501.992004 452.574005,498.342163 464.659546,494.172302 
	C485.095551,487.121368 505.501343,480.016632 526.459900,474.598541 
	C545.166931,469.762512 563.736389,464.468079 580.130005,453.660278 
	C594.065491,444.473022 606.643616,433.547791 619.561523,423.041901 
	C636.480164,409.282288 653.003540,395.028076 670.767578,381.749420 
M620.806580,344.322144 
	C609.010742,353.292816 598.488708,363.745667 587.159119,373.250580 
	C575.039246,383.418518 562.078552,392.471863 548.578186,400.741547 
	C546.780396,401.842773 544.447693,403.066803 545.712219,405.761200 
	C546.672363,407.806885 547.919739,410.183899 550.830322,409.676331 
	C552.598328,409.368011 554.334167,408.618713 555.965820,407.823975 
	C573.218933,399.421143 589.305664,389.128418 604.798523,377.837311 
	C624.137634,363.742920 641.874084,347.470947 662.618958,335.279572 
	C663.856323,334.552429 664.949036,333.356567 665.743469,332.140076 
	C668.161377,328.437683 667.087646,325.504486 662.931458,323.937805 
	C659.614685,322.687500 656.406250,323.241852 653.245789,324.515045 
	C641.556641,329.223969 631.218323,336.153381 620.806580,344.322144 
M585.834961,344.336456 
	C565.157104,356.784241 547.221680,373.221832 526.275085,385.282593 
	C524.438477,386.340057 522.866089,387.842560 524.318115,390.123810 
	C525.548218,392.056488 527.503784,393.207520 529.870850,392.292694 
	C531.874634,391.518341 533.776794,390.443726 535.648438,389.370422 
	C557.117432,377.058533 575.752686,360.977783 594.421631,344.962311 
	C596.227051,343.413513 598.818420,342.034363 598.896240,338.532318 
	C593.961731,339.214478 590.445190,342.139404 585.834961,344.336456 
z"/>
<path fill="#000000" opacity="1.000000" stroke="none" 
	d="
M427.758728,70.221214 
	C432.190521,75.963715 434.711884,82.754166 441.333710,86.299477 
	C444.155487,87.810249 446.031586,87.442879 447.755249,85.081360 
	C450.960052,80.690636 455.631012,77.483276 457.617218,72.052994 
	C458.474731,69.708511 461.105591,68.540833 463.515686,67.738716 
	C468.256195,66.161003 472.147736,63.157738 475.260864,59.530697 
	C477.957275,56.389111 481.097290,54.675610 484.879669,53.797253 
	C488.341003,52.993439 491.853485,51.962238 494.344513,49.541016 
	C497.934692,46.051426 501.989502,45.056324 506.650482,45.669220 
	C510.722382,46.204655 514.192322,44.759418 517.448792,42.636372 
	C520.251221,40.809383 523.167542,40.769157 526.004944,42.107826 
	C531.036438,44.481647 535.926147,44.321274 540.843506,41.933578 
	C544.481567,40.167072 547.839844,40.957550 550.401733,43.745392 
	C554.755188,48.482925 560.349854,49.662304 566.248230,49.527084 
	C570.619568,49.426872 573.387024,50.975372 575.626038,54.670223 
	C578.961670,60.174583 584.863586,62.664730 590.228760,65.496315 
	C593.874695,67.420525 595.941589,69.805847 597.578796,73.622643 
	C600.247742,79.844627 603.644104,85.853706 608.463257,90.792587 
	C611.039368,93.432663 612.230225,96.242500 612.395264,100.074478 
	C612.666748,106.373901 614.010315,112.620209 617.671448,117.993866 
	C619.531921,120.724594 619.985657,123.570160 618.834778,126.506531 
	C615.726074,134.437881 618.302856,142.216461 619.503662,149.955292 
	C619.936462,152.744766 620.234924,155.194031 618.860718,157.610855 
	C614.940613,164.504761 612.848206,171.803970 613.295288,179.810806 
	C613.426941,182.167969 612.494202,184.432922 610.931519,186.239883 
	C604.798279,193.331757 600.546509,201.492966 597.121521,210.140518 
	C596.498474,211.713745 595.565491,213.018112 594.230713,214.122757 
	C588.400696,218.947617 583.598938,224.571793 580.852844,231.754547 
	C580.251404,233.327499 579.403320,234.760818 577.867371,235.639679 
	C570.422607,239.899490 564.850830,245.751938 561.904602,253.970886 
	C561.494690,255.114441 560.362244,256.263214 559.265076,256.853607 
	C551.767822,260.888000 545.796997,266.426544 541.492737,273.816742 
	C540.406921,275.680969 538.443115,276.661499 536.444214,277.680176 
	C530.114624,280.905762 524.662720,285.170898 522.248901,292.275696 
	C521.430908,294.683502 519.630249,296.148956 517.442932,297.060944 
	C510.384003,300.003998 505.445770,305.264893 501.382019,311.495300 
	C500.434418,312.948151 499.292908,314.068756 497.696899,314.721771 
	C490.241364,317.772339 484.420013,322.792389 479.960571,329.447937 
	C478.476318,331.663116 475.946838,332.340393 473.839783,333.626099 
	C465.600281,338.653809 457.239105,343.488495 449.102539,348.676331 
	C443.402924,352.310425 438.572540,351.825256 433.104401,347.818054 
	C426.151611,342.722809 419.116913,337.593719 411.079926,334.177948 
	C408.534607,333.096161 406.959503,331.203949 405.401917,328.882660 
	C401.610657,323.232544 395.797668,319.789124 389.962067,316.612244 
	C386.963593,314.979889 384.590332,313.164490 382.686157,310.155487 
	C379.460541,305.058472 375.037323,300.890320 369.443634,298.353210 
	C366.406189,296.975494 364.504547,294.843140 362.642059,292.121582 
	C359.165405,287.041351 354.893402,282.529449 349.415680,279.479004 
	C346.698761,277.966003 344.734467,276.098328 343.317139,273.216492 
	C340.946289,268.396027 337.524475,263.684113 333.077698,261.206146 
	C327.001038,257.819977 323.876953,252.346161 319.890717,247.387939 
	C316.360779,242.997238 313.324188,238.161484 307.717865,235.929581 
	C306.355927,235.387405 305.219147,234.044907 304.950256,232.535324 
	C303.377716,223.705551 296.622528,218.507584 291.020203,212.522446 
	C289.650848,211.059555 288.054840,209.821808 287.429962,207.830963 
	C284.856659,199.632492 280.696655,192.381042 274.822449,186.075592 
	C273.076355,184.201279 272.959412,181.652283 272.515839,179.152817 
	C271.367462,172.682404 270.721222,165.966980 266.218323,160.574966 
	C263.823914,157.707764 264.530853,154.250381 264.892700,150.978394 
	C265.927185,141.624405 268.310852,132.330475 264.877106,122.914825 
	C264.061096,120.677193 264.275208,118.023766 266.000519,115.784737 
	C270.583466,109.837234 272.221741,102.710533 273.571259,95.557190 
	C273.987885,93.348740 274.356079,91.193512 276.009766,89.723633 
	C281.675293,84.687828 284.983612,78.303345 287.158112,71.190956 
	C287.863983,68.882324 289.086975,66.809479 291.543152,66.093681 
	C297.276917,64.422707 302.836884,61.417736 306.484161,57.376877 
	C312.271759,50.964714 319.541168,49.687416 326.950653,47.858444 
	C329.141205,47.317719 331.157562,46.407497 332.444244,44.635380 
	C335.506378,40.417881 339.525696,40.520828 343.579498,42.252010 
	C348.281952,44.260227 352.600952,43.985043 356.939270,41.513115 
	C359.406860,40.107109 362.036102,40.143906 364.647186,40.951576 
	C370.694611,42.822178 376.736420,44.667557 383.162140,44.623528 
	C385.460876,44.607777 387.395325,45.766270 389.086273,47.047234 
	C394.640411,51.254761 401.087494,53.432129 407.549622,55.631229 
	C408.479431,55.947647 409.729340,56.170944 410.197357,56.864807 
	C414.487701,63.225193 421.408569,66.038292 427.758728,70.221214 
M517.050171,268.073151 
	C515.908997,263.762512 518.448975,261.839294 521.998596,260.903412 
	C524.229858,260.315094 526.608887,260.300568 528.914490,259.977875 
	C533.235657,259.373077 538.431519,254.053909 537.883606,250.833084 
	C536.615356,243.378189 538.584656,240.908859 546.025269,240.624069 
	C552.252747,240.385681 556.543335,235.104858 555.583374,228.859985 
	C554.794373,223.726913 556.282776,221.586655 561.374756,220.749191 
	C563.011536,220.480011 564.719910,220.628174 566.348145,220.328323 
	C571.458374,219.387222 574.503357,213.068405 571.799133,208.718857 
	C569.674011,205.300858 571.114441,203.104462 573.726379,201.066711 
	C575.711060,199.518402 578.088318,199.746292 580.412781,199.562561 
	C586.094788,199.113434 589.205566,193.182755 586.408020,188.236542 
	C585.079651,185.887939 585.721802,183.786392 586.953918,181.674072 
	C588.486877,179.046082 591.139587,178.040863 593.672668,176.751526 
	C597.907410,174.596008 600.002869,167.837234 597.515259,164.891800 
	C593.066833,159.624573 593.613647,156.228226 599.621277,152.359039 
	C601.020691,151.457764 602.677979,150.885895 602.627930,148.798553 
	C602.533386,144.854172 603.043152,140.877151 602.240906,137.042175 
	C595.216980,135.497086 593.531799,130.424072 598.042603,125.122826 
	C601.121216,121.504700 601.549622,116.008301 599.074341,111.903221 
	C598.343079,110.690689 597.501648,110.062981 595.856934,110.157982 
	C589.427429,110.529350 586.387451,105.954445 589.256653,100.023010 
	C590.502197,97.448090 592.413086,95.337257 590.092285,92.376907 
	C588.253357,90.031189 587.090515,87.175430 584.769287,85.171394 
	C583.925415,84.442841 582.954590,84.340233 581.964050,84.691483 
	C576.402893,86.663513 574.434082,83.456345 573.245667,78.834343 
	C572.618591,76.395355 565.264221,69.928864 563.575806,70.635254 
	C557.117188,73.337311 553.991699,69.442551 551.317993,64.798294 
	C549.133118,61.003109 546.403015,60.870224 543.006287,62.819702 
	C539.888855,64.608902 536.905212,64.693382 533.548950,62.989204 
	C529.981140,61.177608 526.284607,60.107529 522.336426,63.030006 
	C519.744141,64.948799 516.428101,64.913765 513.276245,63.531197 
	C507.723877,61.095699 505.845428,61.802528 503.051514,67.251472 
	C501.049927,71.155067 497.641327,73.160118 493.617737,72.039856 
	C488.684357,70.666283 486.496948,72.510056 484.999969,76.805336 
	C483.879944,80.019043 481.546112,82.376801 477.963013,82.185097 
	C472.081970,81.870445 469.504272,85.085320 468.341949,90.196762 
	C467.685547,93.083481 466.431427,96.096024 463.633667,96.835144 
	C455.590912,98.959885 453.037689,104.720207 451.998627,112.071259 
	C451.392914,116.356461 449.647491,120.412910 444.743347,121.121986 
	C440.169647,121.783287 436.694977,119.447746 434.573456,115.391235 
	C433.737762,113.793343 433.184967,112.007080 432.755402,110.245148 
	C431.659241,105.748810 429.816620,101.998718 425.443756,99.594810 
	C422.076721,97.743828 419.380280,94.961319 418.604706,90.833885 
	C418.016724,87.704933 415.627045,85.619316 412.974030,84.996681 
	C406.679962,83.519539 403.414673,79.347435 401.387329,73.767258 
	C400.363953,70.950478 398.486084,69.494453 395.661377,70.408226 
	C389.043518,72.549080 384.103973,69.368118 379.222443,65.726494 
	C378.048431,64.850685 376.856445,62.978741 375.446259,63.751488 
	C368.885315,67.346771 364.192139,64.055458 359.213135,60.245834 
	C356.308289,58.023209 353.216461,57.946896 352.275665,62.752689 
	C351.769684,65.337242 349.589935,65.928871 347.383331,66.270676 
	C344.081512,66.782127 341.756439,65.202789 339.490082,62.941910 
	C336.562714,60.021664 332.375702,61.174286 331.374298,64.915421 
	C329.757080,70.957161 327.958893,72.694977 321.859436,71.173943 
	C315.907166,69.689606 312.558838,72.775703 308.810242,75.849609 
	C311.173431,82.625084 309.626190,84.973938 302.803162,85.387268 
	C301.972290,85.437607 301.113129,85.358215 300.314209,85.542793 
	C296.681580,86.382050 293.335663,92.632980 294.904144,95.560020 
	C298.132202,101.583992 296.500458,104.982727 289.671692,106.259529 
	C285.340149,107.069420 285.557098,110.997261 284.388519,113.897926 
	C283.569611,115.930679 283.500427,117.617950 285.987061,119.336273 
	C290.758057,122.633148 290.312408,126.885994 285.135376,129.217117 
	C282.156616,130.558380 281.258453,132.530426 281.337921,135.464401 
	C281.405609,137.961548 281.450897,140.468048 281.313263,142.959763 
	C281.144501,146.014206 281.889740,148.153107 284.824280,149.942123 
	C288.901001,152.427429 289.065338,155.615326 286.191254,159.676651 
	C283.774506,163.091690 286.758972,172.204361 290.732727,173.543472 
	C296.391510,175.450439 297.540680,177.732666 295.761292,183.529953 
	C294.273590,188.376892 299.345673,196.712143 304.332001,197.614700 
	C309.514374,198.552719 311.222382,200.442169 310.077820,205.353500 
	C309.366272,208.406631 310.362244,210.518906 311.915466,212.706192 
	C314.257538,216.004333 316.808838,218.688248 321.321075,219.333038 
	C324.942505,219.850525 328.599365,221.592773 327.719421,226.514221 
	C326.619354,232.666916 333.036682,240.085922 339.535675,239.975250 
	C345.378387,239.875748 347.749756,242.459793 346.983063,248.209335 
	C346.851593,249.195267 346.276703,250.268829 347.022217,251.071793 
	C351.154358,255.522293 353.568329,262.048309 361.480072,261.773560 
	C366.216309,261.609100 368.118622,264.136688 367.556580,268.726868 
	C367.310028,270.740143 367.741791,272.249969 368.955750,273.781403 
	C372.249084,277.936157 375.593292,281.210632 381.775391,280.835724 
	C388.044128,280.455475 389.858185,283.434174 388.217712,289.587219 
	C387.772980,291.255310 388.018585,292.498871 389.139679,293.686951 
	C391.857605,296.567200 394.698334,298.368927 399.160645,297.785370 
	C405.714752,296.928253 409.033875,299.147308 408.420685,303.595734 
	C407.785858,308.201294 409.945953,310.706635 413.124268,313.215729 
	C416.202362,315.645752 419.305603,316.483215 423.294647,315.812988 
	C429.238434,314.814362 432.522186,317.413116 432.230286,322.049988 
	C431.916138,327.040375 436.440796,332.609192 441.248138,333.148926 
	C444.790405,333.546661 453.424316,326.772247 453.836609,323.271729 
	C454.684540,316.072327 458.084656,313.661102 465.299805,315.142670 
	C470.800232,316.272125 477.854462,311.001709 477.665710,305.453430 
	C477.499115,300.556702 479.935059,298.877411 484.227509,298.685242 
	C485.389587,298.633209 486.558960,298.763763 487.723236,298.736786 
	C493.143250,298.611206 498.054840,292.391785 496.876099,287.188049 
	C496.291687,284.608124 497.126312,282.678253 499.411011,281.251129 
	C501.966034,279.655212 504.741302,279.672852 507.597046,279.626495 
	C512.995056,279.538879 517.639954,274.286346 517.050171,268.073151 
z"/>
<path fill="#000000" opacity="1.000000" stroke="none" 
	d="
M492.623749,653.956421 
	C492.809143,657.728516 491.273682,659.773804 487.742706,659.763855 
	C478.096741,659.736633 468.450989,659.525024 458.805420,659.542175 
	C456.124908,659.546875 454.100281,658.790833 453.517944,656.110352 
	C452.930573,653.406677 453.091431,650.914368 456.375519,649.585266 
	C461.170654,647.644592 462.671295,643.624756 462.659302,638.716553 
	C462.610474,618.725708 462.563110,598.734375 462.673065,578.744019 
	C462.702637,573.364624 461.166626,569.295166 455.748016,567.370789 
	C453.450684,566.554810 452.174835,564.799194 452.396057,562.392517 
	C452.647644,559.655701 454.711884,558.211609 457.165192,558.066406 
	C462.807678,557.732483 468.471588,557.733521 474.127625,557.666016 
	C478.458282,557.614258 482.790253,557.680725 487.121490,557.665161 
	C489.621490,557.656128 492.094666,558.096680 492.493896,560.958130 
	C492.850739,563.515808 493.090485,566.550720 489.947906,567.855042 
	C485.917328,569.528015 484.162811,572.632751 483.720337,576.724365 
	C483.055939,582.867920 483.267151,589.030762 483.540955,595.178040 
	C483.669647,598.067932 485.522949,599.774780 488.460968,599.791992 
	C498.453918,599.850586 508.447571,599.830200 518.440735,599.787659 
	C520.730469,599.777893 522.444641,598.606140 522.499451,596.246765 
	C522.657959,589.430298 523.136902,582.586487 522.248474,575.799561 
	C521.774658,572.180115 520.043396,569.139221 516.331787,567.777039 
	C513.334106,566.676758 512.209717,564.434204 512.702271,561.487549 
	C513.266418,558.112061 515.918945,557.661987 518.777466,557.667236 
	C528.106506,557.684387 537.435486,557.659668 546.764526,557.681091 
	C549.363525,557.687073 552.092041,557.913574 552.344116,561.256226 
	C552.547791,563.957825 553.013000,566.844604 548.985291,567.921692 
	C545.250732,568.920410 543.476135,572.039001 543.316467,575.903870 
	C542.484436,596.041504 541.977783,616.194397 542.566406,636.337219 
	C542.726135,641.801636 543.478394,647.729004 550.248169,650.174255 
	C552.769836,651.085083 552.768311,653.908264 552.231018,656.303894 
	C551.731323,658.531555 550.061890,659.790283 547.903870,659.803345 
	C537.745056,659.864685 527.584839,659.825073 517.426514,659.703552 
	C514.806946,659.672302 513.005615,658.157166 512.547668,655.519104 
	C512.088501,652.873535 512.531189,650.294861 515.379639,649.281067 
	C521.614868,647.061768 522.520691,641.958679 522.620117,636.430176 
	C522.727966,630.434814 522.501282,624.431335 522.698669,618.440552 
	C522.812317,614.993469 521.768860,613.253479 518.092590,612.882507 
	C507.758606,611.839661 497.473022,613.322937 487.161713,613.196411 
	C484.342163,613.161743 483.518463,615.345825 483.488678,617.647644 
	C483.387268,625.475098 483.292023,633.308411 483.496277,641.131531 
	C483.592712,644.825439 486.254822,647.058716 489.346069,648.647400 
	C491.419128,649.712830 493.022858,650.973267 492.623749,653.956421 
z"/>
<path fill="#000000" opacity="1.000000" stroke="none" 
	d="
M762.452820,659.487488 
	C758.581970,659.970581 756.702454,658.212524 756.032776,655.002380 
	C755.434692,652.135376 756.643677,650.125122 759.377930,649.127319 
	C764.592468,647.224182 765.461426,642.629700 765.504089,638.146362 
	C765.695679,618.019226 765.623108,597.888977 765.543945,577.760315 
	C765.527832,573.658569 763.848389,570.248169 759.809448,568.629150 
	C756.553040,567.323730 755.736694,564.916687 756.286682,561.815735 
	C756.872864,558.510620 759.422485,557.689941 762.259277,557.717712 
	C777.381165,557.865479 792.620422,556.339355 807.596619,558.667664 
	C829.859802,562.128845 845.505615,577.036194 847.320801,602.910522 
	C848.190613,615.309387 846.154846,627.074524 838.919006,637.572144 
	C829.448425,651.311829 815.840393,658.007507 799.747009,659.205017 
	C787.505859,660.115784 775.147827,659.455261 762.452820,659.487488 
M786.351135,609.499939 
	C786.353088,619.655457 786.338379,629.811096 786.363403,639.966553 
	C786.378418,646.065186 790.244263,649.500305 796.290161,648.456787 
	C805.876099,646.802307 813.942566,642.541443 819.045410,633.871338 
	C828.400940,617.975647 828.330933,601.438843 820.652161,585.244263 
	C815.344788,574.050964 805.294067,569.137939 792.877075,569.289429 
	C788.389893,569.344177 786.234070,571.324402 786.302856,576.036255 
	C786.460693,586.855408 786.351807,597.678406 786.351135,609.499939 
z"/>
<path fill="#000000" opacity="1.000000" stroke="none" 
	d="
M361.046356,620.921387 
	C353.821472,611.012024 346.817566,601.384460 339.791443,591.726379 
	C337.071930,593.554688 337.214996,595.857422 337.429565,597.935852 
	C338.853851,611.733032 337.883728,625.575439 338.290039,639.390808 
	C338.434387,644.300354 339.894897,647.725403 345.058380,648.951538 
	C348.913208,649.866882 348.970917,652.902405 348.671112,656.095398 
	C348.352875,659.484802 346.068176,659.981201 343.352203,659.937683 
	C335.859222,659.817566 328.366852,659.634766 320.873444,659.580933 
	C317.972839,659.560120 316.800476,657.687622 315.898438,655.438049 
	C315.093994,653.431824 315.664246,651.374023 317.559113,650.789429 
	C325.836090,648.235535 326.332825,641.157471 326.479065,634.633606 
	C326.833466,618.822021 327.238831,602.973145 325.626434,587.191956 
	C325.267273,583.676392 325.462372,580.217651 325.562378,576.727661 
	C325.677887,572.697205 324.295746,569.541199 320.158630,568.175293 
	C317.180054,567.191895 315.051361,565.598938 315.791809,562.019348 
	C316.553680,558.336365 319.131592,557.489807 322.512726,557.596558 
	C326.841156,557.733276 331.195587,557.874451 335.505371,557.558044 
	C340.455750,557.194702 343.673492,559.360901 346.288239,563.297668 
	C358.636841,581.889526 371.698151,599.979980 384.977905,617.914062 
	C385.763123,618.974487 386.391693,620.191467 388.118225,620.828125 
	C389.723236,618.408569 389.460358,615.575745 389.548889,612.916992 
	C389.909180,602.098816 388.846680,591.290894 389.470642,580.448914 
	C389.785583,574.976501 387.645599,570.259705 381.843292,568.294189 
	C378.095978,567.024719 377.094269,564.002563 377.693420,560.746765 
	C378.228394,557.839722 381.015869,557.453430 383.687836,557.483826 
	C391.176575,557.569153 398.666260,557.630798 406.155151,557.600708 
	C408.539276,557.591125 410.639679,558.010620 411.175323,560.624939 
	C411.770721,563.531067 411.557678,566.915283 408.543365,568.003784 
	C401.941498,570.387817 401.281708,575.373901 401.312744,581.225830 
	C401.434631,604.222229 401.472076,627.219666 401.384857,650.216064 
	C401.372040,653.590820 401.425110,657.608765 397.471252,659.136963 
	C393.262115,660.764038 389.619537,659.262695 386.930176,655.659485 
	C378.364197,644.182800 369.819977,632.689880 361.046356,620.921387 
z"/>
<path fill="#000000" opacity="1.000000" stroke="none" 
	d="
M667.242371,643.162476 
	C667.817566,622.154663 668.249207,601.511169 667.205322,580.875916 
	C667.056519,577.933289 668.186401,574.908081 666.575623,572.027710 
	C665.306213,569.757812 663.700073,568.067871 661.150024,567.190674 
	C658.369141,566.234070 657.435974,563.692627 657.847168,561.190063 
	C658.271301,558.609436 660.492065,557.627502 663.141052,557.631714 
	C668.971252,557.640869 674.802246,557.460938 680.631714,557.506165 
	C684.144348,557.533386 686.249207,559.730103 688.140747,562.514587 
	C701.428406,582.074890 714.815979,601.567322 728.186829,621.071045 
	C728.634766,621.724365 729.245300,622.266113 729.979065,623.080750 
	C731.842834,621.343994 731.561035,619.306824 731.565918,617.407288 
	C731.596558,605.577698 731.641479,593.747620 731.577942,581.918335 
	C731.536072,574.127014 729.297180,570.913330 721.968201,568.226013 
	C718.698059,567.026917 718.449219,564.593506 718.701660,561.789673 
	C718.959961,558.920105 720.817139,557.764709 723.452820,557.711609 
	C731.944031,557.540466 740.436401,557.419861 748.928711,557.307922 
	C751.188354,557.278137 752.346680,558.612915 752.366272,560.727295 
	C752.389160,563.196899 753.833496,566.515564 750.060242,567.414490 
	C744.536255,568.730469 743.236633,572.420044 743.250549,577.444214 
	C743.278748,587.604370 743.108276,597.765442 742.978882,607.925598 
	C742.798523,622.080994 742.549683,636.235657 742.400879,650.391357 
	C742.363464,653.950256 742.779846,657.842407 738.387390,659.039612 
	C734.044678,660.223267 730.238708,659.036133 727.442627,655.113159 
	C718.648132,642.774658 709.747620,630.511719 700.920044,618.196716 
	C695.875061,611.158752 690.904175,604.067749 685.872070,597.020447 
	C684.637939,595.292053 683.604980,593.329895 681.455750,592.492737 
	C679.199890,593.454895 679.299866,595.435486 679.490540,597.202759 
	C680.370911,605.362488 679.987610,613.513550 679.410034,621.654724 
	C678.923218,628.517151 680.136169,635.269714 680.488647,642.074707 
	C680.664856,645.478027 682.667664,647.927979 686.205139,648.773438 
	C689.294739,649.511902 691.367798,650.985229 690.816406,654.657654 
	C690.268982,658.303955 688.264404,659.599243 684.621582,659.555298 
	C677.638489,659.470947 670.650085,659.728760 663.665405,659.907654 
	C659.953796,660.002686 657.533264,658.425354 656.903931,654.707214 
	C656.275818,650.995911 658.921326,649.662476 661.788147,648.932861 
	C664.763794,648.175659 666.190247,646.156860 667.242371,643.162476 
z"/>
<path fill="#000000" opacity="1.000000" stroke="none" 
	d="
M79.938179,655.230591 
	C46.073040,635.391296 48.345619,580.290771 80.415108,562.578674 
	C102.357864,550.459534 128.891891,555.151184 144.350708,579.190735 
	C157.170868,599.127075 154.001236,629.733154 137.686768,646.911987 
	C123.195671,662.170837 99.068184,665.745422 79.938179,655.230591 
M83.030838,581.602539 
	C73.982246,602.117737 74.331215,622.100098 87.830338,640.537903 
	C97.627235,653.919067 114.893074,652.387878 123.361847,638.047791 
	C126.953911,631.965332 129.085098,625.458313 129.910706,618.364990 
	C131.740311,602.645630 128.920319,588.145691 118.574524,575.920288 
	C112.147133,568.325134 102.482208,564.866272 92.672333,570.746582 
	C88.534714,573.226807 85.681007,576.823303 83.030838,581.602539 
z"/>
<path fill="#000000" opacity="1.000000" stroke="none" 
	d="
M265.350922,621.225464 
	C265.352356,628.192505 265.429657,634.688843 265.328461,641.182434 
	C265.259644,645.596252 267.389160,647.629883 271.667267,647.645569 
	C276.163635,647.662048 280.675232,647.882935 285.153137,647.594727 
	C292.480713,647.122986 295.984741,641.779114 298.892365,635.973328 
	C300.545441,632.672546 302.255829,629.992615 306.716553,630.421997 
	C309.898956,630.728271 311.789825,632.438416 311.255280,635.103210 
	C309.946167,641.628845 311.040009,648.364563 309.005829,654.823181 
	C307.913818,658.290344 305.911652,659.726562 302.513794,659.690247 
	C281.878113,659.469788 261.238739,660.568970 240.603073,659.476562 
	C237.709961,659.323425 234.928467,659.777649 234.236923,655.740051 
	C233.621185,652.144958 235.268204,650.562073 238.347336,649.486084 
	C242.188492,648.143677 243.529953,644.912231 243.540878,641.196289 
	C243.580017,627.880798 243.447632,614.564880 243.439743,601.249084 
	C243.435303,593.763733 243.652588,586.277100 243.571106,578.793274 
	C243.516525,573.780457 242.670303,569.193115 236.738098,567.441101 
	C234.086914,566.658142 232.959106,564.082581 233.304581,561.406067 
	C233.677017,558.520325 236.287003,557.940796 238.594086,557.775635 
	C242.240311,557.514709 245.915985,557.655273 249.579239,557.643982 
	C264.734039,557.597290 279.888824,557.546448 295.043671,557.520325 
	C301.125824,557.509827 303.668640,559.611328 304.231354,565.625122 
	C304.571228,569.257324 304.324066,572.944336 304.342712,576.606750 
	C304.355988,579.219543 304.103455,581.987000 301.031891,582.517029 
	C298.182953,583.008545 295.066162,582.444153 293.823975,579.333130 
	C289.849304,569.378723 281.581573,568.104919 272.468018,568.427673 
	C266.783417,568.628967 265.396942,570.052551 265.362244,575.632996 
	C265.321838,582.127930 265.435944,588.624573 265.330322,595.117920 
	C265.276520,598.424683 266.773346,600.257751 269.966797,600.334534 
	C274.220154,600.436768 278.627716,601.694458 282.659546,599.309021 
	C284.384155,598.288574 286.184174,597.026794 286.482361,594.921143 
	C286.929901,591.760559 288.618134,590.519836 291.599335,590.953735 
	C294.398499,591.361267 296.363281,593.154602 296.424011,595.899231 
	C296.578613,602.884521 296.472168,609.883789 296.196960,616.866577 
	C296.076599,619.920837 294.062561,621.516541 290.928528,621.789856 
	C287.753235,622.066772 286.921570,620.225769 286.579681,617.611206 
	C286.199585,614.704529 284.136230,613.368713 281.524719,612.808655 
	C277.572968,611.961121 273.558197,612.092773 269.596100,612.623962 
	C264.517944,613.304688 265.415405,617.331299 265.350922,621.225464 
z"/>
<path fill="#000000" opacity="1.000000" stroke="none" 
	d="
M203.000885,558.094238 
	C210.860168,560.368652 218.414703,562.120117 224.489059,567.718201 
	C236.978821,579.228577 235.694366,608.193237 215.277420,615.798645 
	C207.500122,618.695679 199.543991,619.614319 191.494064,620.414673 
	C187.016083,620.859924 184.946823,622.649048 185.280548,627.378418 
	C185.608063,632.019653 185.299881,636.702576 185.387131,641.364990 
	C185.457611,645.130493 187.211578,647.755798 191.079483,648.453430 
	C194.575470,649.083923 196.598038,650.872009 196.066101,654.562012 
	C195.531311,658.271729 193.376633,659.770508 189.445389,659.632080 
	C179.474014,659.280945 169.495468,660.252686 159.504517,659.589966 
	C156.695343,659.403625 155.014847,658.471313 154.675110,655.714661 
	C154.394699,653.439331 153.777557,650.696716 156.867889,649.857849 
	C161.858200,648.503357 163.373871,644.664795 163.412201,640.357666 
	C163.600433,619.206055 163.626923,598.051453 163.454300,576.899902 
	C163.422699,573.028503 162.019836,569.409912 157.502914,568.031677 
	C153.814117,566.906189 154.496536,563.582275 154.707367,560.865784 
	C154.933121,557.957336 157.640701,557.765320 159.663513,557.766846 
	C173.976562,557.777283 188.296341,557.150635 203.000885,558.094238 
M206.287857,575.263977 
	C202.311417,570.092896 197.006607,567.895569 190.580841,568.420471 
	C187.696259,568.656128 185.379379,569.747742 185.380600,573.222961 
	C185.384308,583.860779 185.354462,594.498840 185.423050,605.136230 
	C185.436172,607.171631 185.875320,609.024170 188.473129,609.577454 
	C196.231293,611.229980 205.472763,606.576233 208.680893,599.124207 
	C212.157944,591.047424 211.371216,583.278259 206.287857,575.263977 
z"/>
<path fill="#000000" opacity="1.000000" stroke="none" 
	d="
M584.144531,648.484863 
	C587.170227,649.775146 590.788025,649.576233 590.544189,654.348633 
	C590.347595,658.197266 588.816345,659.868042 585.130798,659.819824 
	C577.485107,659.719910 569.835815,659.416809 562.195923,659.575989 
	C558.825073,659.646118 556.406372,658.501343 555.698792,655.458923 
	C554.965881,652.308105 556.778687,650.270935 560.010132,649.277161 
	C564.492554,647.898682 567.115234,644.524475 568.557129,640.175171 
	C576.876587,615.079834 585.301941,590.018494 593.387634,564.848083 
	C594.661926,560.881226 596.170959,558.575989 600.530273,558.066223 
	C603.699463,557.695679 606.834595,557.601990 609.977478,557.696472 
	C614.185486,557.822876 615.255981,561.280579 616.337341,564.414185 
	C621.705078,579.968872 627.006592,595.546448 632.290771,611.129761 
	C635.598938,620.885620 638.866699,630.655579 642.090210,640.439758 
	C643.568115,644.925781 645.696899,648.631287 650.835327,649.699890 
	C654.043152,650.367004 653.600952,653.081604 653.399536,655.352051 
	C653.167480,657.966858 651.651672,659.785339 648.910522,659.811523 
	C638.771545,659.908508 628.631226,659.892761 618.491638,659.852417 
	C616.138123,659.843018 613.506531,659.769409 613.172974,656.617920 
	C612.854492,653.608704 612.703308,650.301086 616.389648,649.088806 
	C619.510742,648.062439 620.642700,645.745850 620.506409,642.992310 
	C620.233521,637.480957 618.616882,632.235901 616.117493,627.307861 
	C615.251526,625.600403 613.554565,625.405212 611.804871,625.413147 
	C604.809814,625.444763 597.814026,625.489075 590.819641,625.415588 
	C587.702698,625.382812 585.701904,626.696167 584.937439,629.693481 
	C583.747803,634.357849 582.600586,639.034485 581.538391,643.729248 
	C581.071472,645.792725 582.213806,647.223389 584.144531,648.484863 
M608.617737,606.070862 
	C606.012146,598.668884 603.701050,591.146606 599.767090,582.863159 
	C596.559814,589.546082 595.275452,595.499451 593.359619,601.209412 
	C589.095154,613.919128 589.487610,614.422302 602.692993,613.783508 
	C608.664978,613.494690 609.006165,613.106995 608.617737,606.070862 
z"/>
<path fill="#000000" opacity="1.000000" stroke="none" 
	d="
M357.405792,765.422363 
	C337.168610,773.642029 316.191925,766.642944 313.126862,743.109619 
	C310.986755,726.677856 319.913025,713.926941 337.054321,710.836548 
	C352.598419,708.034119 366.592377,716.217346 370.814392,730.309082 
	C374.674835,743.194031 369.833649,759.382202 357.405792,765.422363 
M325.534363,731.173096 
	C321.088867,740.026855 324.800598,749.261658 329.652496,754.046509 
	C334.666412,758.991333 343.660614,760.276794 350.072937,757.475769 
	C359.094757,753.534973 361.802704,744.703979 361.447968,738.118347 
	C361.015778,730.095093 354.389130,722.099060 347.223541,720.691528 
	C338.952545,719.066956 329.871246,721.784485 325.534363,731.173096 
z"/>
<path fill="#000000" opacity="1.000000" stroke="none" 
	d="
M693.327942,736.111816 
	C698.616638,736.106140 703.445007,736.064453 708.272827,736.100281 
	C711.690857,736.125610 713.532532,737.605103 713.156860,741.338196 
	C712.924438,743.648560 713.066467,745.996521 713.038696,748.327576 
	C712.898804,760.053772 706.503479,767.352966 694.594421,768.331421 
	C688.371826,768.842651 682.031921,768.963501 675.963379,766.213501 
	C666.101440,761.744385 661.231323,754.013672 660.751892,743.544617 
	C660.526978,738.632935 659.824707,733.610901 661.603821,728.714294 
	C666.481873,715.287964 680.210938,707.875610 694.479370,710.959229 
	C699.441772,712.031738 704.093628,713.712769 708.026062,716.947388 
	C709.641357,718.276001 712.749146,719.585022 710.161682,722.363770 
	C708.092957,724.585510 706.206116,728.279236 702.021606,725.061646 
	C695.412964,719.980225 688.287292,718.655334 680.543884,722.542908 
	C671.858826,726.903320 668.193542,740.743774 673.448975,749.595947 
	C679.036316,759.007202 691.182983,761.827881 699.763184,755.709290 
	C702.185120,753.982239 704.308777,751.925903 703.260986,748.684509 
	C702.264282,745.601135 699.374023,745.431091 696.643066,745.360779 
	C695.478210,745.330872 694.311768,745.369324 693.146301,745.354797 
	C689.888916,745.314392 686.454590,746.204163 686.490356,740.677246 
	C686.524048,735.455811 689.846802,736.345886 693.327942,736.111816 
z"/>
<path fill="#000000" opacity="1.000000" stroke="none" 
	d="
M603.700317,741.288025 
	C602.335205,739.583252 601.236633,738.115173 600.039917,736.732117 
	C599.063843,735.604004 598.041748,734.344971 596.254028,735.085815 
	C594.572144,735.782715 594.409302,737.305542 594.404602,738.845764 
	C594.380859,746.670471 594.313354,754.495789 594.389893,762.319580 
	C594.420776,765.472839 594.264526,767.893799 589.957581,767.625122 
	C586.206421,767.391052 584.371704,766.609131 584.474243,762.133728 
	C584.809753,747.490784 584.605408,732.835693 584.648621,718.185425 
	C584.654419,716.224731 584.239929,714.199829 585.295410,712.062622 
	C590.047485,710.980652 593.824219,711.497803 597.193665,716.166748 
	C603.416260,724.789124 610.379395,732.877686 617.053955,741.172546 
	C618.074829,742.441223 618.954773,743.944397 620.932495,744.154114 
	C622.921875,742.843872 622.603760,740.730103 622.619934,738.803711 
	C622.673035,732.477722 622.643555,726.151001 622.646729,719.824585 
	C622.651184,710.844788 622.794983,710.725647 632.351196,712.131042 
	C632.351196,723.332092 632.351379,734.592468 632.351074,745.852783 
	C632.350952,751.013855 632.477722,756.179626 632.286377,761.333618 
	C632.209167,763.412964 633.617920,766.426453 630.298706,767.236694 
	C627.263306,767.977722 624.519409,767.364319 622.336792,764.556824 
	C616.310486,756.805298 610.076355,749.215332 603.700317,741.288025 
z"/>
<path fill="#000000" opacity="1.000000" stroke="none" 
	d="
M471.754974,767.808350 
	C464.473907,767.257935 464.601593,767.257996 464.605865,760.527161 
	C464.615204,745.871826 464.576874,731.214783 464.337952,716.562073 
	C464.278351,712.910156 465.346436,711.356506 469.135925,711.568359 
	C472.538361,711.758667 476.008636,711.116821 475.549683,716.488464 
	C475.182159,720.789856 475.344147,725.142212 475.383514,729.470947 
	C475.420319,733.517273 477.512390,735.604614 481.615936,735.592896 
	C485.946777,735.580505 490.281525,735.700867 494.607452,735.554138 
	C498.509979,735.421753 500.786011,733.551758 500.667603,729.292175 
	C500.542694,724.797913 500.750031,720.293213 500.577972,715.802002 
	C500.447662,712.400879 502.120422,711.478882 505.154480,711.565796 
	C508.073853,711.649414 511.000549,711.312927 510.929932,715.659790 
	C510.827179,721.987610 510.878174,728.317993 510.875061,734.647278 
	C510.869812,745.278320 510.873596,755.909302 510.873596,765.690857 
	C508.546387,767.889587 506.775909,767.212524 505.189117,767.444397 
	C501.642426,767.962463 500.431305,766.268005 500.593811,762.854858 
	C500.775757,759.032776 500.579712,755.194153 500.620209,751.363525 
	C500.667877,746.854919 498.448608,744.527466 493.985504,744.443909 
	C489.822998,744.366028 485.657501,744.405701 481.493774,744.443909 
	C477.629089,744.479309 475.595398,746.636292 475.475769,750.337769 
	C475.341583,754.490906 475.489380,758.658752 475.660034,762.814209 
	C475.768982,765.467407 475.238800,767.476440 471.754974,767.808350 
z"/>
<path fill="#000000" opacity="1.000000" stroke="none" 
	d="
M198.680573,758.465576 
	C204.539368,759.402527 209.575317,758.573669 214.154282,755.098206 
	C220.088165,750.594360 220.939529,750.832153 226.448044,757.628235 
	C222.021454,763.616699 215.887802,767.193420 208.672089,768.155518 
	C191.622101,770.428955 177.544373,763.336609 173.990051,745.934021 
	C169.102661,722.004700 189.504364,706.969666 208.677383,711.196655 
	C214.159836,712.405334 219.172913,714.367493 223.161682,718.466736 
	C224.801697,720.152161 226.126495,722.043396 223.680481,723.905090 
	C221.565720,725.514709 220.051926,728.851929 216.199509,725.911133 
	C206.974792,718.869507 199.092728,718.552856 191.559357,724.030823 
	C184.721344,729.003235 183.265503,736.010437 184.588867,743.565125 
	C185.918854,751.157593 190.513870,756.450623 198.680573,758.465576 
z"/>
<path fill="#000000" opacity="1.000000" stroke="none" 
	d="
M401.107635,721.422852 
	C399.852936,721.473938 399.023254,721.532898 398.192535,721.566284 
	C395.673553,721.667419 392.344757,722.957275 392.467621,718.504578 
	C392.560638,715.133423 391.466003,711.192383 397.703735,711.449463 
	C409.827698,711.949158 421.987091,711.596313 434.131805,711.577698 
	C436.634430,711.573853 438.979553,711.627930 438.490387,715.220459 
	C438.112488,717.995850 439.180511,721.222534 434.294281,721.463440 
	C420.342590,722.151367 420.350739,722.324219 420.349823,736.519775 
	C420.349182,746.491516 420.349701,756.463257 420.349701,766.082886 
	C418.961029,767.864014 417.317749,767.323975 415.903778,767.561584 
	C412.107239,768.199707 410.476196,766.820679 410.559082,762.715881 
	C410.774170,752.071106 410.641754,741.419067 410.633301,730.769958 
	C410.626801,722.576111 409.689484,721.623535 401.107635,721.422852 
z"/>
<path fill="#000000" opacity="1.000000" stroke="none" 
	d="
M266.682739,756.328491 
	C273.599518,758.747314 280.447601,757.505310 287.185852,757.493530 
	C291.818787,757.485474 292.841187,759.030518 292.502289,763.315735 
	C292.261841,766.355896 291.302429,767.418823 288.357666,767.401855 
	C278.365326,767.344116 268.372009,767.400635 258.379486,767.473572 
	C255.860779,767.491943 254.697998,766.365234 254.699341,763.883179 
	C254.708176,747.561646 254.726318,731.240112 254.693573,714.918640 
	C254.684479,710.382996 257.995544,711.798279 260.400146,711.626770 
	C263.005768,711.440979 265.424500,711.313171 265.381317,715.209656 
	C265.257568,726.367188 265.329590,737.527100 265.343475,748.686035 
	C265.346588,751.172852 265.105133,753.707642 266.682739,756.328491 
z"/>
<path fill="#000000" opacity="1.000000" stroke="none" 
	d="
M543.537842,751.326294 
	C543.396362,740.430847 543.181396,729.976440 543.116272,719.520996 
	C543.062439,710.885437 543.746094,710.426514 552.760498,712.265381 
	C553.743652,714.096802 553.321838,716.122864 553.327698,718.069275 
	C553.372070,732.846741 553.257446,747.625671 553.433472,762.401245 
	C553.481995,766.473083 552.075684,768.122437 547.977539,768.041443 
	C543.773010,767.958313 543.105835,765.834106 543.456238,762.217102 
	C543.790649,758.763672 543.528870,755.252563 543.537842,751.326294 
z"/>
<path fill="#000000" opacity="1.000000" stroke="none" 
	d="
M479.240326,245.743469 
	C478.050568,248.378311 479.462921,249.898071 480.839508,251.369797 
	C483.228333,253.923859 485.672699,256.426056 488.101074,258.942993 
	C489.736145,260.637634 491.266785,262.466034 491.910980,264.734131 
	C492.538330,266.942749 493.204987,269.444763 491.193512,271.291046 
	C489.057617,273.251465 486.766174,272.029449 484.720154,270.902679 
	C479.829193,268.209229 476.620270,263.522217 472.252716,260.184845 
	C470.096313,258.537048 468.064209,257.026215 465.086578,257.344666 
	C460.121582,257.875610 457.968781,254.770828 457.818390,250.486435 
	C457.700439,247.126007 456.276825,244.908127 454.027954,242.749893 
	C448.743744,237.678650 443.763336,232.293762 438.054016,227.665176 
	C434.316223,224.634933 431.370514,224.654556 427.817413,228.476517 
	C420.678345,236.155853 413.039917,243.373032 405.561493,250.734100 
	C401.436768,254.794144 396.309265,256.259186 394.141296,253.633163 
	C390.529907,249.258774 394.074615,245.447388 396.597168,242.624832 
	C403.246765,235.184402 410.502747,228.283234 417.565216,221.215240 
	C423.893555,214.881927 423.923615,213.289154 417.583618,206.961487 
	C415.461456,204.843430 413.251434,202.803345 411.254242,200.573029 
	C409.366058,198.464447 407.297699,197.177567 404.331451,197.342270 
	C399.993958,197.583099 397.733551,195.195160 397.739471,191.028397 
	C397.743469,188.223679 396.524078,186.359955 394.656403,184.547394 
	C390.353821,180.371796 386.088684,176.153946 381.921539,171.843765 
	C378.886902,168.704926 376.121490,165.767792 370.978973,166.099457 
	C367.522766,166.322357 365.783875,163.107712 365.785126,159.893661 
	C365.786530,156.322296 364.106873,153.994720 361.714966,151.745865 
	C357.225830,147.525162 352.605438,143.403656 348.499329,138.828323 
	C345.003662,134.933182 342.372223,135.589218 339.119019,138.959366 
	C333.799377,144.470184 328.266876,149.777176 322.772003,155.116455 
	C320.254486,157.562668 317.553345,159.819366 314.114014,160.874542 
	C311.997437,161.523911 309.842560,161.843048 308.109253,159.904099 
	C306.276794,157.854202 306.589508,155.703323 307.693695,153.418381 
	C308.809723,151.108948 310.570587,149.357224 312.326874,147.582474 
	C318.184326,141.663406 324.059601,135.761887 329.900330,129.826355 
	C332.112183,127.578606 334.273376,125.354973 335.190430,122.112503 
	C335.789307,119.995049 337.476898,118.232010 339.633423,117.654625 
	C345.297089,116.138222 348.826233,111.880287 352.703369,108.032356 
	C358.022888,102.752907 363.294586,97.424767 368.654510,92.186806 
	C371.313873,89.587967 374.290314,87.467163 378.241058,87.390976 
	C382.176910,87.315079 384.099640,89.790527 382.901886,93.563774 
	C381.803284,97.024765 379.138367,99.402740 376.681976,101.874229 
	C370.462433,108.132072 364.143890,114.291977 357.956299,120.580925 
	C353.892517,124.711288 353.886047,126.487274 357.892090,130.647705 
	C361.356110,134.245255 365.004944,137.664444 368.552643,141.182022 
	C371.990082,144.590286 375.110840,148.337570 380.871429,144.948441 
	C382.802460,143.812332 385.604370,144.515808 387.221710,146.572281 
	C388.933044,148.748260 388.977997,151.484543 387.475586,153.598694 
	C385.033325,157.035324 386.280426,159.215729 388.940216,161.656967 
	C393.967072,166.270706 398.052032,172.602493 403.881134,175.480682 
	C411.727081,179.354706 417.200317,184.086685 420.770416,192.087036 
	C422.421906,195.787949 426.649323,198.323624 429.652527,201.441864 
	C432.254852,204.143890 434.569824,204.109879 437.269409,201.375320 
	C445.459442,193.079132 453.815643,184.947266 462.070862,176.715012 
	C465.022034,173.772018 467.879547,170.725830 471.577911,168.689117 
	C474.193329,167.248795 477.179901,166.388321 479.412811,168.776001 
	C481.631958,171.148956 480.889069,174.356552 478.983185,176.565353 
	C474.749084,181.472443 470.192383,186.108109 465.656189,190.745880 
	C459.716980,196.818069 453.796692,202.919067 447.621521,208.746216 
	C444.123444,212.047104 443.564453,214.619965 447.425110,218.126801 
	C452.472107,222.711243 457.153809,227.707993 461.861206,232.652496 
	C464.972717,235.920715 468.219788,238.049225 473.141815,237.792511 
	C478.414246,237.517517 479.991821,239.911560 479.240326,245.743469 
z"/>
<path fill="#000000" opacity="1.000000" stroke="none" 
	d="
M510.747986,125.332481 
	C507.348297,119.047081 501.588562,115.349617 497.232788,110.359238 
	C496.140381,109.107719 494.862030,108.014297 493.810669,106.732193 
	C492.419983,105.036377 492.186523,102.979713 493.159149,101.100830 
	C494.180511,99.127739 496.217590,98.587914 498.317139,98.786110 
	C501.760284,99.111153 504.625031,100.735886 507.148041,103.041138 
	C510.712189,106.297676 514.324097,109.502419 517.863464,112.785545 
	C520.722229,115.437363 523.305542,115.311134 526.111755,112.571945 
	C532.663086,106.177170 539.338074,99.908943 545.974548,93.601616 
	C548.025024,91.652794 549.968201,89.550255 552.218750,87.862495 
	C555.316650,85.539337 559.131897,84.029366 562.141663,87.292816 
	C565.080078,90.478836 563.045288,93.859032 560.453369,96.519234 
	C552.086304,105.106857 543.728149,113.705788 535.207275,122.139481 
	C532.323853,124.993454 532.178833,127.172203 535.266907,129.933838 
	C538.362244,132.701904 541.160583,135.812164 543.985596,138.868149 
	C545.328247,140.320679 546.589905,141.900085 547.603882,143.592392 
	C549.106262,146.099854 550.315674,148.911987 547.480225,151.239807 
	C544.971741,153.299194 541.948975,152.785919 539.571472,151.105743 
	C536.741821,149.105988 534.275452,146.570007 531.755066,144.158356 
	C520.081055,132.987946 522.893250,133.515335 512.031616,144.046082 
	C508.564423,147.407669 505.188477,150.863266 501.733521,154.237732 
	C499.569061,156.351776 497.133942,158.144516 494.210022,159.005127 
	C489.836212,160.292450 486.950165,157.575027 487.793396,153.077881 
	C488.244202,150.673828 489.759399,148.930084 491.455322,147.270584 
	C496.930023,141.913422 502.371735,136.522308 507.798859,131.116882 
	C509.309875,129.611938 511.175079,128.260025 510.747986,125.332481 
z"/>
</svg>